<svg xmlns="http://www.w3.org/2000/svg" width="450" height="975" viewBox="0 0 450 975">
<rect width="450" height="975" fill="#faf6ef"/>
<text x="36" y="78" font-family="Iowan Old Style, Palatino, Georgia, serif" font-size="26" font-weight="600" fill="#21201b">Today</text>
<text x="36" y="106" font-family="-apple-system, Helvetica, Arial, sans-serif" font-size="15" fill="#6f685b">Monday, June 8</text>
<circle cx="406" cy="74" r="4" fill="#bcae9a"/><circle cx="420" cy="74" r="4" fill="#bcae9a"/>
<path d="M 228.96 318.05 A 168 168 0 0 1 388.25 525.65 L 333.84 512.43 A 112 112 0 0 0 227.64 374.03 Z" fill="#d2ccbe" opacity="0.92"/>
<path d="M 386.21 533.29 A 168 168 0 0 1 372.43 566.55 L 323.29 539.70 A 112 112 0 0 0 332.47 517.53 Z" fill="#B8C9A3" opacity="0.92"/>
<path d="M 368.47 573.40 A 168 168 0 0 1 346.56 601.96 L 306.04 563.31 A 112 112 0 0 0 320.65 544.27 Z" fill="#A67C52" opacity="0.92"/>
<path d="M 345.79 612.62 A 175 175 0 0 1 229.12 660.95 L 227.64 597.97 A 112 112 0 0 0 302.31 567.04 Z" fill="#2D4A3E" opacity="1.00"/>
<path d="M 221.04 653.95 A 168 168 0 0 1 185.35 649.25 L 198.57 594.84 A 112 112 0 0 0 222.36 597.97 Z" fill="#7BAE7F" opacity="0.92"/>
<path d="M 177.71 647.21 A 168 168 0 0 1 109.04 607.56 L 147.69 567.04 A 112 112 0 0 0 193.47 593.47 Z" fill="#4A8C6F" opacity="0.92"/>
<path d="M 103.44 601.96 A 168 168 0 0 1 63.79 533.29 L 117.53 517.53 A 112 112 0 0 0 143.96 563.31 Z" fill="#2D4A3E" opacity="0.92"/>
<path d="M 61.75 525.65 A 168 168 0 0 1 57.05 489.96 L 113.03 488.64 A 112 112 0 0 0 116.16 512.43 Z" fill="#bf5b3e" opacity="0.92"/>
<path d="M 57.05 482.04 A 168 168 0 0 1 77.57 405.45 L 126.71 432.30 A 112 112 0 0 0 113.03 483.36 Z" fill="#7BAE7F" opacity="0.92"/>
<path d="M 81.53 398.60 A 168 168 0 0 1 137.60 342.53 L 166.73 390.35 A 112 112 0 0 0 129.35 427.73 Z" fill="#A67C52" opacity="0.92"/>
<path d="M 144.45 338.57 A 168 168 0 0 1 221.04 318.05 L 222.36 374.03 A 112 112 0 0 0 171.30 387.71 Z" fill="#d2ccbe" opacity="0.92"/>
<circle cx="283.4" cy="617.1" r="7" fill="#faf6ef"/>
<circle cx="283.4" cy="617.1" r="4.5" fill="#21201b"/>
<circle cx="225" cy="486" r="100" fill="#fffdf8"/>
<text x="225" y="466" text-anchor="middle" font-family="-apple-system, Helvetica, Arial, sans-serif" font-size="11" font-weight="700" letter-spacing="1.5" fill="#bf5b3e">NOW</text>
<text x="225" y="494" text-anchor="middle" font-family="Iowan Old Style, Palatino, Georgia, serif" font-size="27" font-weight="600" fill="#21201b">Deep Work</text>
<text x="225" y="522" text-anchor="middle" font-family="-apple-system, Helvetica, Arial, sans-serif" font-size="15" fill="#6f685b">24:18 left</text>
<rect x="45.0" y="838" width="360" height="66" rx="20" fill="#fffdf8" stroke="#ece4d5" stroke-width="1.5"/>
<circle cx="83.0" cy="871.0" r="17" fill="#2D4A3E"/>
<rect x="77.5" y="864.0" width="4" height="14" rx="1.5" fill="#fffdf8"/>
<rect x="85.0" y="864.0" width="4" height="14" rx="1.5" fill="#fffdf8"/>
<text x="115.0" y="865" font-family="-apple-system, Helvetica, Arial, sans-serif" font-size="13" font-weight="600" fill="#21201b">Auto-advance on</text>
<text x="115.0" y="885" font-family="-apple-system, Helvetica, Arial, sans-serif" font-size="13" fill="#6f685b">Next → Lunch · 12:00</text>
</svg>